<svg width="40" height="40" viewBox="0 0 40 40" fill="none" xmlns="http://www.w3.org/2000/svg">
  <!-- Circular background -->
  <circle cx="20" cy="20" r="20" fill="#2563eb"/>
  
  <!-- Car icon -->
  <path d="M8 24h2.5l1.5-4h16l1.5 4H32v-4c0-1.1-.9-2-2-2h-3l-2-4H15l-2 4h-3c-1.1 0-2 .9-2 2v4z" fill="white"/>
  <circle cx="14" cy="26" r="2" fill="white"/>
  <circle cx="26" cy="26" r="2" fill="white"/>
  
  <!-- Wrench accent -->
  <path d="M30 8l-3 3 1 1 3-3c.5-.5.5-1.3 0-1.8s-1.3-.5-1.8 0l.8.8z" fill="#60a5fa" stroke="white" stroke-width="0.5"/>
</svg>

